<svg width="659" height="205" xmlns="http://www.w3.org/2000/svg">
 <!-- Created with Method Draw - http://github.com/duopixel/Method-Draw/ -->

 <g id="Layer_1">
  <title>Layer 1</title>
  <path id="svg_10" d="m3.83916,1.48173c0.1127,0.34493 0.30564,1.82008 0.42858,3.27849c0.56177,6.59716 3.76504,10.32271 13.94857,16.23169c0.86229,0.49897 2.56296,1.57227 3.78211,2.38435c1.21916,0.81209 2.33074,1.47683 2.47075,1.47683c0.13831,0 0.42517,0.15739 0.6369,0.34995c0.683,0.6212 2.06437,1.51701 3.26986,2.1198l1.17818,0.58772l0.69837,-1.17878c0.38419,-0.64967 0.79228,-1.4785 0.90668,-1.84352c0.23905,-0.75851 2.38026,-3.93653 2.94373,-4.37187c0.62665,-0.48223 -0.16051,-1.70789 -1.63066,-2.54342c-0.71886,-0.40856 -1.90045,-1.22399 -2.62614,-1.81338c-0.7274,-0.59107 -1.40527,-1.07329 -1.50943,-1.07329c-0.10416,0 -1.15086,-0.69655 -2.32391,-1.54715c-1.17305,-0.85227 -2.8003,-1.98082 -3.61307,-2.51161c-0.81448,-0.52911 -2.44002,-1.65264 -3.61307,-2.49654c-1.17476,-0.8439 -2.83957,-2.00426 -3.70015,-2.57859c-0.86058,-0.57265 -1.69384,-1.14194 -1.84922,-1.26418c-0.15709,-0.12223 -0.86229,-0.58604 -1.56578,-1.03311c-0.70349,-0.44707 -1.77751,-1.26083 -2.38367,-1.80668c-1.43259,-1.29264 -5.84307,-1.58901 -5.44863,-0.36669m216.71591,-0.22772c0,0.21935 -0.25442,0.47888 -0.56689,0.576c-0.31247,0.09712 -0.7291,0.32483 -0.92547,0.50735c-0.72057,0.66641 -3.37914,2.52333 -7.46519,5.2141c-0.93742,0.61618 -4.79808,3.30025 -5.12933,3.56481c-0.15538,0.12558 -1.17988,0.84223 -2.2761,1.59403c-1.09622,0.75181 -2.54759,1.74975 -3.22718,2.22026c-0.67788,0.46883 -1.49577,0.99962 -1.81678,1.17711c-0.32101,0.17749 -0.6608,0.43367 -0.75813,0.56762c-0.09562,0.13395 -0.89473,0.7066 -1.7758,1.27255c-2.2539,1.45004 -2.29488,1.87199 -0.40809,4.25467c0.48664,0.61451 1.24135,1.87031 1.67847,2.79123c1.17305,2.47142 1.19696,2.50491 1.78946,2.59198c0.29881,0.04353 1.1833,-0.32149 1.96192,-0.81376c0.78033,-0.49228 2.12242,-1.33115 2.983,-1.86529c0.86058,-0.53414 2.48271,-1.5505 3.60453,-2.2571c1.12183,-0.7066 3.73601,-2.35254 5.80892,-3.6569c4.86296,-3.05914 9.07195,-7.0392 9.08561,-8.5897c0.00171,-0.11051 0.19636,-0.56427 0.432,-1.00799c0.71715,-1.34957 1.55895,-5.04331 1.55895,-6.8433l0,-1.69785l-2.2761,0c-1.78775,0 -2.27781,0.08539 -2.27781,0.40018m39.91281,1.14194c-0.35175,0.84725 -0.64031,1.79664 -0.64031,2.10975c0,0.31479 -0.15026,0.84558 -0.33467,1.18046c-0.18612,0.33488 -0.49518,1.23739 -0.68983,2.00426c-0.19295,0.76855 -0.48664,1.7732 -0.65056,2.23366c-0.92888,2.59366 -1.73994,5.22917 -1.74165,5.65279c0,0.2679 -0.19295,0.84892 -0.42858,1.29097c-0.23564,0.44204 -0.50884,1.32111 -0.60787,1.95236c-0.09733,0.63293 -0.33638,1.46343 -0.52762,1.84687c-0.19295,0.38511 -0.43883,1.18213 -0.54811,1.7732c-0.10928,0.59107 -0.36711,1.47013 -0.57543,1.95236c-0.69325,1.62417 -0.99889,3.36388 -0.63178,3.5983c0.63519,0.40688 5.37521,0.11386 5.60231,-0.3466c0.1144,-0.23107 0.47981,-1.01804 0.81277,-1.75143l0.60616,-1.33283l4.1663,0.07702c4.45999,0.08205 4.44462,0.07702 4.77076,1.61748c0.32101,1.53041 1.11158,1.94901 3.666,1.94399c3.05813,-0.0067 3.15375,-0.07535 2.62101,-1.89543c-0.23393,-0.79702 -0.61641,-2.10808 -0.84863,-2.91514c-0.23393,-0.80539 -0.5464,-1.71627 -0.69495,-2.02268c-0.15026,-0.30642 -0.39443,-1.12353 -0.5464,-1.81338c-0.15026,-0.69153 -0.41151,-1.63255 -0.57884,-2.09301c-0.16734,-0.46046 -0.63861,-1.96743 -1.04499,-3.34881c-0.40809,-1.38139 -0.87595,-2.8264 -1.03816,-3.20984c-0.16392,-0.38344 -0.45932,-1.32613 -0.6591,-2.09301c-0.36882,-1.41487 -0.54299,-1.9624 -1.42064,-4.46564c-0.26979,-0.76688 -0.55152,-1.86529 -0.62836,-2.44128l-0.14002,-1.0465l-3.31426,0l-3.31426,0l-0.64031,1.54213m51.45039,3.97002c-0.53786,8.08738 -0.81619,21.37044 -0.45078,21.62328c0.39614,0.27293 5.04054,0.26288 5.48108,-0.01172c0.23222,-0.144 0.37224,-1.31273 0.42688,-3.55309c0.07684,-3.14956 0.1144,-3.34379 0.67788,-3.42249c0.50884,-0.07033 0.66593,0.16074 1.04499,1.53543c1.54358,5.57242 1.6153,5.66786 4.29436,5.66117c2.38196,-0.0067 2.16511,0.23944 3.4611,-3.90304c1.87142,-5.98098 1.97387,-5.97596 2.24707,0.11888c0.10245,2.25877 0.26637,3.39904 0.51396,3.55309c0.47127,0.29302 5.09006,0.2947 5.56133,0.00167c0.33979,-0.21098 0.03415,-11.08624 -0.67105,-23.97582l-0.17246,-3.13951l-3.35353,0c-3.24084,0 -3.35865,0.02177 -3.51233,0.6279c-1.24989,4.9328 -1.85776,7.1765 -3.27328,12.06912c-0.31077,1.07497 -0.64714,2.42454 -0.74789,3.00054c-0.20149,1.16371 -0.64714,1.38641 -0.83497,0.4186c-0.0683,-0.34493 -0.26296,-1.22399 -0.43371,-1.95403c-0.17075,-0.72837 -0.44907,-1.92222 -0.61982,-2.65058c-0.41492,-1.77822 -1.2738,-5.2208 -1.68701,-6.76795c-0.18441,-0.68986 -0.4781,-2.03943 -0.65056,-2.99886l-0.31589,-1.74473l-3.30914,0l-3.30914,0l-0.36711,5.51214m58.3965,8.0924l0.07342,13.60455l7.93475,0.07367c9.2666,0.08707 8.71337,0.25786 8.71337,-2.70249c0,-2.89337 0.14685,-2.813 -5.16177,-2.813c-5.10372,0 -4.82369,0.14232 -5.01834,-2.54677c-0.19978,-2.72761 -0.1588,-2.75607 4.03995,-2.75607c4.15093,0 4.14923,0.00167 4.14923,-2.69244c0,-3.40239 -0.05123,-3.44593 -3.98701,-3.44593c-3.96994,0 -4.26704,-0.17246 -4.26704,-2.48314c0,-2.58026 -0.07855,-2.54007 5.11567,-2.54007c5.24032,0 4.90736,0.19591 5.07811,-2.99049l0.12294,-2.31235l-8.43334,0l-8.43334,0l0.07342,13.60455m51.51015,0l0.07342,13.60455l2.48783,0.08037c3.81285,0.12391 3.63015,0.39851 3.63015,-5.5021c0,-5.37987 -0.01708,-5.32294 1.56407,-5.32294c0.62495,0 2.13608,2.02436 2.13608,2.86156c0,0.15237 0.33467,1.04818 0.74276,1.98752c0.4098,0.94102 0.84521,1.96073 0.97157,2.26715c1.56236,3.83941 1.45308,3.75904 5.02688,3.76406c3.35182,0.00502 3.48672,-0.09209 2.64492,-1.88706c-0.3415,-0.72502 -0.78033,-1.6945 -0.97669,-2.15496c-0.19807,-0.46046 -0.6147,-1.40315 -0.92717,-2.09301c-0.31418,-0.69153 -0.86741,-1.91887 -1.23282,-2.72928l-0.66251,-1.4718l1.19184,-1.18883l1.19013,-1.1905l0,-6.43307c0,-6.08144 -0.03244,-6.46321 -0.57031,-6.94041c-0.31247,-0.27795 -0.5686,-0.67479 -0.5686,-0.88074c0,-0.30642 -1.55212,-0.37507 -8.39749,-0.37507l-8.39919,0l0.07513,13.60455m54.85515,-0.07535l0,13.5292l0.64031,0.15739c0.35345,0.08707 1.79288,0.12056 3.20156,0.07535l2.56125,-0.08205l0.07513,-13.60455l0.07342,-13.60455l-3.27499,0l-3.27669,0l0,13.5292m43.25781,-13.08046c0,0.24614 -0.31589,0.81376 -0.70008,1.26418c-1.01596,1.18213 -1.04841,1.6158 -0.95279,12.76232l0.08708,10.15025l1.56578,1.35794l1.56407,1.35962l6.33824,0.00167l6.33824,0.00335l1.2755,-1.15199l1.2738,-1.15032l0,-2.45468c0,-3.45095 0.09391,-3.33542 -2.75249,-3.33542c-2.79176,0 -3.35865,0.2227 -3.92042,1.54548l-0.41322,0.96613l-1.96363,0c-1.69213,0 -2.0712,-0.09544 -2.71834,-0.68483l-0.75301,-0.68316l0,-6.68925c0,-8.3737 0.01366,-8.40719 3.65064,-8.40719c1.79458,0 2.20438,0.23944 2.3683,1.38306c0.14855,1.03646 5.24373,1.69282 6.16066,0.79367c0.63348,-0.6212 0.45078,-5.62266 -0.2271,-6.22377c-0.31418,-0.27795 -0.57031,-0.67479 -0.57031,-0.88074c0,-0.30474 -1.45991,-0.37507 -7.82547,-0.37507c-6.99563,0 -7.82547,0.04688 -7.82547,0.44874m60.04595,0.10046c0,0.30139 -0.17758,0.96111 -0.39273,1.46511c-0.21685,0.504 -0.52762,1.41822 -0.69154,2.03273c-0.16392,0.61283 -0.57201,1.99422 -0.90839,3.06919c-0.33809,1.07497 -0.80936,2.64389 -1.0467,3.48779c-0.23905,0.8439 -0.53445,1.66101 -0.65739,1.81506c-0.12123,0.15237 -0.30906,0.71832 -0.41663,1.2558c-0.10757,0.53581 -0.44395,1.79161 -0.74959,2.78956c-1.42747,4.66657 -1.78605,5.7901 -2.14291,6.69762c-1.47699,3.75569 -1.2516,4.17597 2.24024,4.18267l2.48954,0.00335l0.87424,-1.81338l0.87424,-1.81338l4.13215,0c3.92896,0 4.14069,0.02846 4.28583,0.57265c0.08367,0.31479 0.42346,1.10008 0.75642,1.74306l0.60275,1.17208l2.70297,0c3.1179,0 3.32963,-0.23609 2.4127,-2.6757c-0.25442,-0.67646 -0.58055,-1.79664 -0.72398,-2.48649c-0.14343,-0.69153 -0.39102,-1.50697 -0.55152,-1.81506c-0.1588,-0.30642 -0.46956,-1.18548 -0.69154,-1.95236c-0.22027,-0.76855 -0.66763,-2.2437 -0.99206,-3.28016c-1.54358,-4.92108 -1.79629,-5.76163 -2.19755,-7.32218c-0.23564,-0.91925 -0.53274,-1.79831 -0.6591,-1.95236c-0.12636,-0.15572 -0.36711,-0.84725 -0.53445,-1.53878c-0.16734,-0.69153 -0.53445,-1.91385 -0.81619,-2.71756l-0.51054,-1.46176l-3.34329,-0.00335c-3.13668,-0.00335 -3.34499,0.03014 -3.34499,0.54586m31.30531,2.74603c0,4.36183 0.01366,4.37857 3.37744,4.37857c3.35182,0 3.28865,0.0787 3.40476,-4.19941l0.09391,-3.47439l-3.43891,0l-3.4372,0l0,3.29523m29.0275,-2.39775c-1.37112,1.66771 -1.40357,1.82343 -1.41381,6.80479c-0.00854,4.39699 0.25954,6.53018 0.82131,6.53018c0.1144,0 0.71032,0.50065 1.32502,1.11181l1.11671,1.11181l4.02116,0.00502c4.86467,0.00502 4.76051,-0.0653 4.45316,2.97207l-0.22198,2.19515l-2.13096,0.08205c-2.79518,0.11051 -3.41842,-0.05358 -3.41842,-0.9025c0,-1.44669 -0.18441,-1.55217 -2.68931,-1.55217c-2.96081,0 -3.28694,0.2746 -3.28694,2.7611c0,1.87199 0.25783,2.56519 1.35405,3.6569c1.67847,1.66938 1.69213,1.67273 8.32236,1.65431c6.8761,-0.02009 6.74292,0.00335 7.945,-1.48352l0.87766,-1.08502l0,-5.626c0,-8.22468 -0.35175,-8.63994 -7.54203,-8.95305c-5.1447,-0.2227 -5.64329,-0.60781 -4.80149,-3.69039c0.43371,-1.58734 5.11567,-1.65096 5.65353,-0.0787c0.39614,1.15869 0.89644,1.33618 3.85724,1.37469c2.76444,0.03516 2.83274,-0.04186 2.83274,-3.19979c0,-2.13487 -0.09391,-2.67403 -0.57031,-3.26677c-0.31247,-0.39014 -0.5686,-0.84725 -0.5686,-1.01469c0,-0.21265 -2.28976,-0.29972 -7.61204,-0.28967l-7.61374,0.01507l-0.71032,0.86734m-207.33319,4.72852c0.90839,0.40521 1.14232,4.76201 0.27491,5.08852c-0.8196,0.30809 -4.54537,0.18251 -4.90053,-0.16577c-0.57714,-0.56762 -0.45078,-4.59792 0.15709,-4.94452c0.68129,-0.39014 3.58063,-0.37507 4.46853,0.02177m-167.31793,8.84254c0.26296,1.02139 0.49859,2.29561 0.5225,2.8331l0.04269,0.97785l-1.92435,0.08205c-2.63297,0.11219 -2.62101,0.15907 -1.22257,-4.68666c0.70861,-2.45468 0.6591,-2.3944 1.42406,-1.68948c0.42175,0.38846 0.86058,1.33115 1.15769,2.48314m318.27289,-2.21859c0.29711,0.28967 0.62836,1.04818 0.73764,1.68278c0.10928,0.63627 0.3876,1.52706 0.61982,1.98082c0.91522,1.79831 0.49518,2.36594 -1.7536,2.36594c-2.40416,0 -2.55784,-0.30474 -1.60505,-3.20984c0.32613,-0.99795 0.66422,-2.15998 0.74959,-2.58193c0.181,-0.90083 0.51054,-0.96446 1.2516,-0.23777m-358.09179,5.47196c-0.57031,0.38009 -1.38649,0.88409 -1.81337,1.12018c-0.42517,0.23777 -1.15769,0.67813 -1.62725,0.9812c-0.46956,0.30139 -1.27038,0.74009 -1.77922,0.97116c-0.50884,0.23274 -0.92547,0.51404 -0.92547,0.6279c0,0.11219 -0.67276,0.57432 -1.49406,1.02474c-0.82131,0.45042 -2.07632,1.2039 -2.78835,1.67441c-1.65628,1.09339 -2.12925,1.39478 -3.65234,2.32575c-1.07573,0.65637 -3.48501,2.16836 -5.32399,3.34044c-0.29881,0.19088 -0.99206,0.59441 -1.53846,0.89916c-3.05301,1.6945 -4.1202,2.67068 -4.31144,3.94323c-0.10074,0.67646 -0.40639,2.525 -0.67959,4.10899c-0.56518,3.28853 -0.46615,3.54807 1.15256,2.98881c3.24254,-1.12018 18.12511,-8.78059 20.03239,-10.31099c2.5032,-2.00929 4.42755,-4.77038 5.26252,-7.55659c0.8418,-2.80463 1.0245,-3.72053 1.0245,-5.10861c0,-1.7531 -0.22539,-1.9038 -1.53846,-1.02976m-223.6125,-0.216c-1.23282,0.27795 -0.55665,4.77708 1.26697,8.44738c2.19243,4.40871 4.01433,5.84703 13.00774,10.27918c4.14752,2.04278 7.73327,3.82602 7.9689,3.96332c0.23393,0.13563 1.19525,0.57432 2.13438,0.97283c0.93913,0.40018 1.94655,0.85395 2.23853,1.01134c0.86741,0.46381 1.07914,-0.08874 0.60958,-1.59236c-0.23734,-0.75851 -0.51225,-2.50826 -0.61129,-3.88965c-0.23051,-3.21319 -0.11953,-3.05077 -3.51233,-5.17224c-1.58798,-0.99292 -3.80773,-2.38435 -4.93297,-3.09095c-5.60914,-3.52797 -7.50105,-4.7101 -10.00254,-6.24888c-1.49919,-0.92092 -3.7787,-2.34584 -5.06615,-3.1663c-2.79518,-1.77822 -2.51856,-1.64427 -3.10082,-1.51366m36.37317,5.93744c-0.41492,0.48223 -0.75472,0.98455 -0.75472,1.11683c0,0.1306 -0.16563,0.40353 -0.37053,0.60613c-3.12473,3.11105 -3.59429,11.74428 -0.92034,16.91485c1.31478,2.54007 7.10662,7.8111 11.40952,10.38299c0.3859,0.23107 0.77179,0.63962 0.85887,0.90753c0.08879,0.2679 0.34321,0.48893 0.5686,0.48893c0.22368,0 0.40639,0.12558 0.40639,0.27795c0,0.38176 -0.32272,0.35163 -1.53163,-0.144c-0.5686,-0.23274 -1.3438,-0.3466 -1.72116,-0.25451c-1.80141,0.44372 -1.0023,9.18412 1.20208,13.12902c0.26808,0.47888 0.76496,1.35794 1.10475,1.95403c0.65739,1.15199 3.41329,3.8796 4.71782,4.66992c0.43029,0.25953 0.78204,0.64967 0.78204,0.86567c0,0.216 0.22368,0.44707 0.49859,0.51404c0.2732,0.06698 -0.06489,0.0653 -0.7513,-0.00335c-1.80824,-0.18084 -2.26073,1.13525 -1.33868,3.88797c0.22027,0.65804 0.49176,1.63422 0.60104,2.1717c0.6369,3.1077 3.31426,7.1112 6.46972,9.6697l2.27098,1.84185l-0.8879,0.55088c-1.08939,0.67646 -1.10134,0.47386 0.17417,3.00054c2.58003,5.10526 9.80959,9.78523 15.28213,9.89239c1.58968,0.03014 1.68018,-0.52241 1.50602,-9.18747c-0.20661,-10.24067 -0.67959,-11.64382 -3.95799,-11.75935c-5.92332,-0.21098 -8.98828,-3.83272 -7.82547,-9.24942c0.25442,-1.18381 0.5225,-2.46807 0.59592,-2.85151c0.16051,-0.84055 1.17818,-3.70714 1.74848,-4.9261c0.2271,-0.4839 0.41322,-1.11515 0.41322,-1.40315c0,-0.288 0.18783,-0.78697 0.41663,-1.10846c0.23051,-0.32149 0.49518,-1.13357 0.58738,-1.80668c0.09391,-0.67144 0.36541,-1.97747 0.60446,-2.90175c0.66934,-2.597 0.02561,-8.89779 -1.14403,-11.17833c-0.22881,-0.44707 -0.55665,-1.12855 -0.72569,-1.51199c-2.47246,-5.57912 -8.7185,-11.89498 -17.6675,-17.86089c-0.34662,-0.23107 -1.60847,-1.11181 -2.80542,-1.95906c-1.19525,-0.84725 -2.88055,-2.00761 -3.74113,-2.57859c-0.86058,-0.57097 -2.07632,-1.40985 -2.70297,-1.86529c-1.76214,-1.27925 -2.47417,-1.3412 -3.37231,-0.29302m148.05391,0.5693c-1.15769,0.77358 -3.25791,2.21524 -4.6666,3.20146c-1.40869,0.98623 -3.26645,2.25208 -4.12703,2.81468c-0.86058,0.5626 -1.62896,1.10008 -1.7075,1.19385c-0.07855,0.09544 -0.78204,0.60781 -1.56407,1.14027c-1.86971,1.27255 -1.75531,1.18715 -3.55843,2.6891c-3.79065,3.16128 -8.07135,7.79603 -9.39125,10.16699c-1.63579,2.94193 -2.6415,5.27438 -3.18107,7.38581c-0.39614,1.5438 -0.15538,10.13685 0.30564,10.97406c0.19636,0.35832 0.52762,1.23739 0.73423,1.95403c0.20661,0.71665 0.71715,2.18343 1.13378,3.25672c0.41663,1.07497 0.88278,2.45635 1.03304,3.07086c0.15197,0.61283 0.46444,1.58901 0.69495,2.16836c2.22658,5.59252 -1.41723,10.88364 -7.45665,10.83006c-3.45427,-0.03014 -4.15947,2.41114 -4.02116,13.93106l0.08538,7.11623l1.03987,0.08539c0.57201,0.04688 1.51626,-0.11051 2.09852,-0.34995c0.58226,-0.23777 1.30282,-0.43367 1.60164,-0.43367c4.99273,0 14.81427,-9.96439 12.02251,-12.19805l-0.82472,-0.66139l0.80936,-0.61618c3.51233,-2.67068 7.30127,-7.41594 7.30127,-9.14226c0,-0.16242 0.24417,-0.82213 0.54299,-1.46678c0.99035,-2.13319 1.10988,-5.68461 0.20319,-6.08814c-0.91522,-0.41023 -0.96303,-1.15534 -0.10587,-1.71627c2.03022,-1.33283 4.55903,-4.27308 5.57157,-6.48163c0.35175,-0.76855 0.82472,-1.74808 1.05182,-2.18008c0.58567,-1.11348 1.06719,-6.62228 0.78374,-8.98319l-0.23393,-1.95403l-1.13207,0.07033c-0.62324,0.03851 -1.17476,0.19423 -1.22769,0.34828c-0.05123,0.15405 -0.43541,0.27628 -0.85375,0.27125c-0.71374,-0.00837 -0.72398,-0.02846 -0.18953,-0.33153c0.31247,-0.17581 1.01767,-0.7719 1.56578,-1.32446c0.5464,-0.55088 2.2761,-1.93394 3.84188,-3.07588c3.19303,-2.32742 6.37068,-5.30117 7.011,-6.562c0.23393,-0.46046 0.56518,-1.08836 0.73764,-1.39478c2.31196,-4.12741 2.12072,-12.66353 -0.34492,-15.48826c-0.19978,-0.23107 -0.44566,-0.67813 -0.54299,-0.9946c-0.24417,-0.79199 -2.00631,-2.63384 -2.51686,-2.63384c-0.23051,0 -1.366,0.63293 -2.52369,1.40818m-75.2427,4.4422c-7.52495,0.52409 -12.69185,3.05077 -14.86208,7.26525c-0.60104,1.16706 -0.96132,1.55552 -1.5026,1.62083c-2.59369,0.31311 -4.94321,1.56892 -6.20335,3.31365c-1.59993,2.21859 -0.55665,10.33109 1.16964,9.09705c1.75531,-1.2558 8.46749,-2.27887 8.83119,-1.34622c0.09562,0.24279 -0.00171,0.84725 -0.21344,1.34287c-0.21344,0.4973 -0.52079,1.40483 -0.68471,2.01933c-0.32613,1.22399 -1.26697,4.26136 -1.72799,5.5808c-0.16051,0.46046 -0.56006,1.77989 -0.88619,2.93021c-0.32613,1.15199 -0.73081,2.46975 -0.89985,2.93021c-0.16734,0.46046 -0.48835,1.52706 -0.71203,2.37263c-0.22539,0.8439 -0.53103,1.78492 -0.68129,2.09301c-0.30394,0.61953 -0.98352,2.88668 -1.50602,5.02322c-0.18783,0.76688 -0.49347,1.66101 -0.68129,1.98752c-0.18612,0.32651 -0.42517,1.14194 -0.53103,1.81338c-0.10416,0.67311 -0.37565,1.58231 -0.60104,2.02101c-0.29028,0.5626 -0.32272,0.88744 -0.11099,1.09506c0.39102,0.38344 15.14553,0.27963 16.53714,-0.11553c0.64202,-0.18251 4.6888,-0.2227 11.3839,-0.11553c5.7133,0.09377 13.14092,0.19591 16.5064,0.22939l6.11797,0.06028l-0.04952,-0.8372c-0.05806,-0.9946 -0.84009,-4.06713 -1.38308,-5.44182c-0.21344,-0.53748 -0.46956,-1.41655 -0.57031,-1.95236c-0.10074,-0.53748 -0.35687,-1.54213 -0.56689,-2.23366c-0.21173,-0.68986 -0.65227,-2.19682 -0.98011,-3.34881c-0.32784,-1.15032 -0.8418,-2.90844 -1.14232,-3.90639c-1.0023,-3.33542 -1.71262,-5.99605 -1.71433,-6.418c0,-0.23107 -0.19295,-0.78195 -0.42858,-1.22399c-0.23393,-0.44204 -0.50713,-1.32111 -0.60616,-1.95236c-0.09733,-0.63293 -0.30735,-1.39645 -0.46615,-1.69785c-0.2732,-0.51739 -0.85034,-2.48817 -1.76043,-6.00944c-0.47981,-1.85524 -2.61248,-7.77259 -2.95568,-8.20459c-0.1366,-0.16912 -0.33467,-0.67144 -0.44395,-1.11683c-0.21173,-0.86232 -2.13608,-3.44928 -3.47989,-4.67662c-2.06266,-1.88203 -6.15383,-2.62045 -12.19497,-2.1985m6.87269,3.21653c2.09169,0.60948 5.50669,4.2915 5.50669,5.93912c0,0.19925 0.17929,0.6413 0.39785,0.9812c0.22027,0.3399 0.48322,1.05655 0.58567,1.59403c0.10245,0.53748 0.42005,1.66771 0.70349,2.51161c0.68812,2.03608 1.51968,4.69169 2.27268,7.2552c0.33809,1.15199 0.7513,2.46975 0.91693,2.93021c0.3193,0.88074 0.78716,2.51161 1.5248,5.30284c0.24247,0.92092 0.64885,2.31235 0.90498,3.09263c1.22599,3.75569 0.31247,3.34881 -4.58805,-2.04612c-1.00572,-1.10678 -2.71834,-1.70455 -2.71834,-0.94939c0,0.12893 -0.22539,0.49562 -0.49859,0.81209c-0.2732,0.31646 -0.92547,1.08836 -1.44967,1.71627c-1.27892,1.53543 -1.64603,1.45841 -3.69503,-0.7786c-2.44856,-2.6757 -2.50149,-2.6757 -5.17543,0.04019c-2.37513,2.41114 -3.31084,2.67068 -3.83163,1.0599c-0.10245,-0.31646 -0.28174,-0.57432 -0.39956,-0.57432c-0.11611,0 -0.64373,-0.56595 -1.17135,-1.2558c-1.43772,-1.88203 -1.77068,-1.76148 -4.98932,1.80836c-3.38597,3.75569 -3.90676,3.74397 -2.71663,-0.0586c0.30223,-0.96278 0.82131,-2.69244 1.15427,-3.84276c0.33126,-1.15199 0.78033,-2.65896 0.99377,-3.34881c0.21515,-0.69153 0.46956,-1.72129 0.56518,-2.29059c0.09733,-0.5693 0.432,-1.60576 0.74789,-2.30231l0.57201,-1.26753l1.97729,0c3.20839,0 3.65576,-0.88241 2.5493,-5.02322c-0.30906,-1.15199 -0.56177,-2.10808 -0.56518,-2.1265c-0.00171,-0.01674 0.9562,-0.37507 2.13096,-0.79534c2.01997,-0.72167 3.58063,-1.98417 3.0735,-2.48147c-0.09904,-0.09879 -2.70639,-0.17916 -5.79013,-0.17916c-5.92844,0 -6.49362,-0.11888 -6.06846,-1.28929c1.14403,-3.1596 11.88249,-5.94749 17.08012,-4.43383m-115.89827,5.00145c-0.66763,1.70455 1.70238,8.27826 3.74455,10.38969c0.16904,0.17414 0.61982,0.67813 1.0006,1.12018c2.81396,3.26007 5.48791,4.37857 17.62482,7.36571c2.66199,0.65637 5.59377,1.42659 6.83,1.79664c0.70349,0.2093 1.79288,0.46381 2.41782,0.56427c0.62665,0.10046 1.74336,0.37004 2.481,0.59776c2.56125,0.79199 2.8908,0.58269 3.15375,-1.99589c0.30394,-3.00221 1.3421,-2.2504 -11.46757,-8.30171c-2.27098,-1.07329 -5.47254,-2.57859 -7.11515,-3.34714c-3.65917,-1.70957 -11.10387,-5.2208 -13.80172,-6.50674c-1.09622,-0.52409 -2.5049,-1.16539 -3.13156,-1.42994c-0.62495,-0.26288 -1.23452,-0.52576 -1.35063,-0.58604c-0.11782,-0.0586 -0.29198,0.09042 -0.3859,0.33321m221.57716,0.60948c-1.01767,0.51237 -3.77016,1.82845 -6.11797,2.92519c-2.34781,1.09506 -5.93356,2.77784 -7.9689,3.73895c-2.03363,0.96278 -5.30008,2.50324 -7.25688,3.42583c-14.48985,6.8299 -13.0897,5.88386 -13.0897,8.84421c0,2.8783 0.20832,3.12109 2.1617,2.50491c0.76667,-0.24111 2.1634,-0.61116 3.10253,-0.82381c5.12079,-1.15534 5.7833,-1.32613 10.38672,-2.669c1.01767,-0.29637 2.04217,-0.53748 2.27781,-0.53414c0.94937,0.01005 8.44871,-2.18008 9.1061,-2.66063c0.23393,-0.17079 1.0023,-0.63962 1.7075,-1.03981c3.93237,-2.23701 8.25235,-8.61649 8.25235,-12.18633c0,-0.45042 0.12465,-1.14027 0.27832,-1.53376c0.15538,-0.40353 0.16563,-0.71665 0.02391,-0.71665c-0.14002,0 -0.42517,-0.04521 -0.63348,-0.10214c-0.20832,-0.05693 -1.21233,0.31479 -2.23,0.82716m28.36328,2.25208c-0.10416,0.10214 -0.18953,37.02279 -0.18953,82.0459l0,81.86004l18.07218,0l18.07047,0l0,-39.61812c0,-38.83617 0.01025,-39.62315 0.54811,-39.90612c0.90156,-0.47218 1.40698,-0.04186 1.90216,1.6225c0.25783,0.86734 0.70861,2.16501 1.0006,2.885c0.29369,0.71832 0.53274,1.56222 0.53274,1.87533c0,0.31311 0.24247,1.10678 0.53786,1.76315c0.29711,0.65637 0.66593,1.6945 0.82302,2.30901c0.15709,0.61451 0.42688,1.52371 0.60104,2.02268c0.74106,2.12817 0.9562,2.80296 1.36259,4.25634c0.23564,0.8439 0.53786,1.66603 0.67446,1.82845c0.13489,0.16074 0.33296,0.8506 0.43883,1.53376c0.10587,0.68316 0.32101,1.40148 0.4781,1.59571c0.15538,0.19423 0.44907,1.00967 0.64885,1.81338c0.20149,0.80371 0.49859,1.8385 0.66251,2.29896c0.3176,0.89748 0.95791,2.85486 1.59993,4.88257c0.21856,0.69153 0.58226,1.82175 0.80936,2.51161c0.22881,0.69153 0.88449,2.76277 1.45821,4.60462c0.57543,1.84185 1.27209,3.97671 1.55212,4.74527c0.27832,0.76688 0.64031,1.8971 0.80253,2.51161c0.16221,0.61283 0.42688,1.4919 0.58738,1.95236c0.16221,0.46046 0.83155,2.53338 1.48723,4.60462c0.65739,2.07291 1.37112,4.17764 1.58627,4.67829c0.21515,0.50065 0.47298,1.44334 0.57372,2.09301c0.10074,0.65134 0.34662,1.49692 0.54469,1.88036c0.19807,0.38344 0.70691,1.82845 1.13037,3.20984c0.42175,1.38139 0.94766,2.92351 1.16622,3.42751c0.21685,0.504 0.39443,1.06995 0.39102,1.2558c-0.00512,0.34995 1.22257,4.33504 1.86801,6.05968c0.71032,1.90045 1.31648,3.77746 1.46504,4.53597l0.15197,0.76688l16.47396,0l16.47225,0l0,-81.75623c0,-80.74823 -0.00683,-81.76125 -0.55323,-82.04925c-0.37224,-0.19423 -6.47484,-0.26623 -18.56906,-0.21935l-18.01583,0.072l-0.21856,38.08437c-0.20319,35.45722 -0.32443,40.33309 -0.94083,37.79302c-0.10928,-0.44372 -0.36711,-1.00129 -0.57543,-1.23739c-0.20832,-0.23609 -0.5242,-1.09339 -0.70178,-1.90547c-0.17758,-0.81209 -0.50201,-1.81171 -0.72057,-2.22194c-0.21685,-0.41023 -0.39614,-0.93432 -0.39785,-1.16371c-0.00171,-0.38344 -0.42517,-1.71794 -1.72628,-5.44182c-0.26808,-0.76688 -0.77691,-2.33747 -1.13207,-3.48779c-1.05694,-3.43421 -1.76556,-5.6394 -2.28805,-7.11623c-0.26979,-0.76855 -0.77179,-2.33747 -1.11158,-3.48946c-0.3415,-1.15032 -0.7957,-2.5317 -1.00913,-3.06919c-0.21344,-0.53748 -0.47469,-1.41487 -0.58226,-1.94901c-0.10757,-0.53581 -0.36028,-1.22567 -0.56348,-1.53543c-0.20319,-0.30977 -0.45932,-1.06492 -0.57031,-1.67775c-0.11099,-0.61451 -0.35858,-1.42994 -0.55152,-1.81506c-0.19295,-0.38344 -0.44054,-1.18046 -0.54982,-1.77152c-0.10928,-0.59107 -0.36882,-1.47013 -0.57714,-1.95403c-0.20661,-0.48223 -0.9101,-2.57356 -1.56236,-4.64648c-0.65056,-2.07124 -1.31819,-4.14416 -1.48382,-4.60462c-0.16563,-0.46046 -0.42858,-1.33952 -0.58567,-1.95236c-0.15709,-0.61451 -0.52591,-1.65431 -0.82302,-2.31068c-0.2954,-0.65637 -0.53786,-1.4065 -0.53786,-1.66938c0,-0.26121 -0.24076,-1.10511 -0.53616,-1.87533c-0.2954,-0.77023 -0.80936,-2.28054 -1.14061,-3.35384c-2.36147,-7.63194 -4.84589,-14.98259 -5.213,-15.41961c-0.3176,-0.37674 -32.66448,-0.53581 -33.04696,-0.16242m128.0608,0.16577c-0.31589,0.22604 -0.58055,0.99292 -0.74447,2.16333c-0.82472,5.8621 -1.51626,10.45834 -1.86801,12.41572c-0.22027,1.22734 -0.53274,3.42416 -0.69495,4.88257c-0.16221,1.45841 -0.42005,3.21653 -0.57372,3.90806c-0.15197,0.68986 -0.41151,2.51161 -0.57714,4.04537c-0.16563,1.53543 -0.41663,3.22993 -0.56006,3.76741c-0.14172,0.53748 -0.39785,2.23366 -0.5686,3.76741c-0.17075,1.53543 -0.42688,3.22993 -0.5686,3.76741c-0.14343,0.53748 -0.39956,2.23366 -0.57031,3.76741c-0.16904,1.53543 -0.42517,3.22993 -0.56689,3.76741c-0.14172,0.53748 -0.39614,2.37766 -0.56518,4.0889c-0.16904,1.71292 -0.42346,3.47104 -0.56348,3.90806c-0.14172,0.43702 -0.40126,2.13989 -0.57543,3.78583c-0.17587,1.64427 -0.43371,3.34044 -0.57201,3.76741c-0.14002,0.42697 -0.39443,2.1918 -0.5686,3.92313c-0.17246,1.72966 -0.42346,3.42918 -0.55835,3.77579c-0.13489,0.34493 -0.33809,1.75478 -0.4542,3.13281c-0.11611,1.37636 -0.31418,2.77282 -0.44054,3.10435c-0.12636,0.32986 -0.37224,1.90045 -0.54469,3.48779c-0.17246,1.58734 -0.49347,3.82937 -0.71374,4.97968c-0.22027,1.15199 -0.53616,3.09765 -0.70008,4.32499c-0.16392,1.22901 -0.43371,3.11272 -0.59763,4.18602c-0.16392,1.07497 -0.54469,3.71216 -0.84692,5.86042c-0.30223,2.14994 -0.67959,4.78713 -0.83838,5.86042c-0.16051,1.07497 -0.42517,2.89672 -0.58909,4.04704c-0.16392,1.15199 -0.48835,3.16128 -0.72057,4.46564c-0.23222,1.30436 -0.54128,3.41579 -0.68812,4.69336c-0.33296,2.90342 -1.02109,7.54822 -1.57773,10.65425c-0.23393,1.30436 -0.54982,3.56481 -0.70008,5.02322c-0.15197,1.45841 -0.39785,3.06584 -0.54811,3.57318c-0.15197,0.50567 -0.35345,1.82343 -0.44907,2.93021c-0.09562,1.10511 -0.35175,2.88835 -0.5686,3.96164c-0.21685,1.07497 -0.47469,2.89672 -0.57201,4.04704c-0.09904,1.15199 -0.29711,2.46975 -0.44224,2.93021c-0.14514,0.46046 -0.44907,2.34417 -0.67446,4.18602c-0.2271,1.84185 -0.53786,3.97671 -0.68983,4.74359c-0.15368,0.76855 -0.33809,1.99254 -0.4098,2.72091l-0.12977,1.32613l19.43135,0l19.42964,0l0.18783,-3.27849c0.10245,-1.80334 0.36199,-4.15922 0.57543,-5.23252c0.21344,-1.07497 0.47127,-3.20984 0.57031,-4.74527c0.10074,-1.53376 0.36199,-3.98341 0.58226,-5.44182c0.22027,-1.45841 0.53786,-4.34341 0.7052,-6.41298c0.26125,-3.20816 0.39614,-3.85616 0.91351,-4.39532l0.60616,-0.63293l10.57284,0l10.57284,0l0.59421,0.6279c0.48493,0.51237 0.65397,1.24576 0.91864,3.97671c0.17929,1.84185 0.50884,4.79382 0.73423,6.562c0.22539,1.7665 0.48493,4.40369 0.57884,5.86042c0.09221,1.45506 0.34833,3.62341 0.56689,4.81727c0.21685,1.19385 0.48152,3.54807 0.58567,5.23252l0.18953,3.06249l19.45184,0l19.45013,0l0,-0.95609c0,-0.52576 -0.25613,-2.23031 -0.5686,-3.78751c-0.31247,-1.5572 -0.57201,-3.2316 -0.57372,-3.71886c-0.00342,-0.48725 -0.18953,-1.73636 -0.41322,-2.77617c-0.22539,-1.03813 -0.54982,-3.15291 -0.72398,-4.69671c-0.17246,-1.54548 -0.432,-3.08091 -0.57714,-3.41411c-0.14343,-0.33153 -0.37907,-1.73468 -0.5225,-3.11607c-0.14343,-1.38139 -0.45932,-3.57821 -0.70178,-4.88257c-0.24247,-1.30436 -0.58567,-3.37728 -0.76155,-4.60462c-0.17758,-1.22901 -0.49347,-3.36388 -0.7052,-4.74527c-0.21173,-1.38139 -0.53445,-3.51625 -0.71715,-4.74359c-0.1827,-1.22734 -0.57031,-3.48779 -0.85887,-5.02322c-0.28857,-1.53543 -0.60787,-3.60667 -0.70861,-4.60462c-0.10074,-0.99795 -0.2954,-2.19012 -0.432,-2.65058c-0.1366,-0.46046 -0.38931,-2.15664 -0.56006,-3.76741c-0.17246,-1.61245 -0.42858,-3.37058 -0.57031,-3.90806c-0.14172,-0.53748 -0.39956,-2.17003 -0.57372,-3.62676c-0.17246,-1.45841 -0.44907,-3.15458 -0.61299,-3.76741c-0.16392,-0.61451 -0.48493,-2.49821 -0.71203,-4.18602c-0.2271,-1.68948 -0.58055,-4.32667 -0.78545,-5.86042c-0.20661,-1.53543 -0.57714,-3.79588 -0.82472,-5.02322c-0.24759,-1.22901 -0.58226,-3.17467 -0.74618,-4.32667c-0.66422,-4.70676 -0.88619,-6.1434 -1.42064,-9.20923c-0.30564,-1.76482 -0.69837,-4.21281 -0.87253,-5.44182c-0.42858,-3.04742 -0.80765,-5.54061 -1.14232,-7.53483c-0.15368,-0.92092 -0.42005,-2.67905 -0.5908,-3.90639c-0.17075,-1.22734 -0.55323,-3.44928 -0.85034,-4.93782c-0.29711,-1.48687 -0.5464,-3.245 -0.55323,-3.90639c-0.00683,-0.66139 -0.14343,-1.7665 -0.30394,-2.45803c-0.16051,-0.69153 -0.46273,-2.44798 -0.66934,-3.90639c-0.20661,-1.45841 -0.57201,-3.78248 -0.81277,-5.16387c-0.81448,-4.69169 -1.22086,-7.3339 -2.29317,-14.929c-0.2493,-1.76482 -0.63861,-4.0889 -0.8657,-5.16387c-0.2271,-1.07329 -0.54469,-2.957 -0.70691,-4.18602c-0.42688,-3.25337 -0.76667,-4.64145 -1.20379,-4.91271c-0.66593,-0.41358 -56.11016,-0.31311 -56.69071,0.10214m74.447,-0.14567c-1.34551,0.07535 -1.84069,0.22102 -2.04729,0.59944c-0.27491,0.50065 0.29711,6.66079 0.67276,7.25688c0.16734,0.26288 0.81619,4.59457 1.70409,11.36587c0.2049,1.55385 0.44737,2.94361 0.53786,3.08928c0.09221,0.14567 0.36711,1.85189 0.61129,3.78918c0.24247,1.93729 0.55323,3.81262 0.68983,4.16592c0.1366,0.3533 0.34492,1.71124 0.46103,3.01561c0.11782,1.30436 0.31247,2.62882 0.43371,2.94193c0.12123,0.31479 0.37394,1.99924 0.56177,3.74565c0.18783,1.74641 0.52079,3.75067 0.73764,4.45225c0.21685,0.70325 0.39785,1.82008 0.39956,2.48147c0.00171,0.65972 0.24588,2.41784 0.54299,3.90639c0.29711,1.48687 0.67276,3.70881 0.83838,4.93782c0.50713,3.80593 0.89132,6.31921 1.36088,8.92458c0.24759,1.37971 0.62836,3.70211 0.84521,5.16387c0.21685,1.46008 0.52591,3.53467 0.68471,4.60797c0.16051,1.07497 0.48322,3.02565 0.72057,4.33671c0.23564,1.31106 0.55665,3.50788 0.71374,4.88424c0.15709,1.37469 0.40639,2.87663 0.55665,3.33709c0.14855,0.46046 0.3859,1.90547 0.52762,3.20984c0.14172,1.30436 0.4559,3.43923 0.69837,4.74359c0.5242,2.81635 0.94254,5.46191 1.34551,8.51268c0.16221,1.22734 0.48152,3.30025 0.70861,4.60462c0.2271,1.30436 0.48835,3.12444 0.58055,4.04537c0.09221,0.92092 0.33809,2.30231 0.54811,3.07086c0.20832,0.76688 0.46273,2.33747 0.56689,3.48779c0.10245,1.15199 0.31077,2.48649 0.46273,2.96872c0.15197,0.48055 0.45761,2.36426 0.67788,4.18602c0.45249,3.71886 1.07402,7.80106 1.69555,11.12475c0.22881,1.22734 0.54982,3.17467 0.71203,4.32499c0.16221,1.15199 0.42688,2.90844 0.58738,3.90639c0.16051,0.99795 0.54469,3.4476 0.85375,5.44182c0.31077,1.99589 0.69325,4.44387 0.85034,5.44182c0.15709,0.99795 0.42175,2.75607 0.58738,3.90806c0.16563,1.15032 0.36199,2.49989 0.43883,2.99886l0.1366,0.90753l28.8226,0l28.82089,0l0.35175,-2.02268c0.19295,-1.11348 0.53103,-3.46769 0.75301,-5.23252c0.22198,-1.7665 0.52762,-3.71216 0.67788,-4.32667c0.15197,-0.61283 0.42688,-2.49654 0.60958,-4.18602c0.1827,-1.6878 0.3876,-3.1596 0.4559,-3.27179c0.15538,-0.25451 1.15427,-7.1246 1.65457,-11.38094c0.20661,-1.76482 0.51054,-3.71216 0.67446,-4.32499c0.16392,-0.61283 0.38077,-2.05617 0.48152,-3.20816c0.10074,-1.15032 0.35858,-2.84649 0.57201,-3.76741c0.21344,-0.92092 0.52762,-3.01895 0.69666,-4.66322c0.17075,-1.64259 0.42346,-3.33877 0.56348,-3.76741c0.14002,-0.42697 0.39443,-2.19347 0.5686,-3.92481c0.17246,-1.72966 0.42005,-3.42583 0.54811,-3.76741c0.12977,-0.34158 0.32443,-1.61748 0.43541,-2.83812c0.10928,-1.21897 0.37053,-2.97709 0.58226,-3.90639c0.21002,-0.9293 0.46956,-2.74435 0.57543,-4.03364c0.10587,-1.28929 0.30394,-2.63217 0.43883,-2.98212c0.1366,-0.35163 0.39102,-1.99589 0.56689,-3.6569c0.17587,-1.65934 0.432,-3.45765 0.56689,-3.99346c0.1366,-0.53748 0.3876,-2.22863 0.55665,-3.75737c0.17075,-1.53041 0.49176,-3.79086 0.71544,-5.02322c0.22368,-1.23404 0.53445,-3.18472 0.68812,-4.33671c0.15538,-1.15032 0.41151,-2.90844 0.57031,-3.90639c0.16051,-0.99795 0.55494,-3.69709 0.88107,-5.9994c0.32443,-2.30231 0.72057,-5.00313 0.88107,-6.00107c0.16051,-0.99795 0.41834,-2.81803 0.57372,-4.04537c0.15368,-1.22901 0.46444,-3.17467 0.68983,-4.32667c0.22539,-1.15032 0.53957,-3.32872 0.69837,-4.84071c0.1588,-1.51199 0.35175,-2.84984 0.43029,-2.97375c0.07684,-0.12391 0.33638,-1.96408 0.57372,-4.0889c0.23905,-2.12482 0.55152,-4.2396 0.69495,-4.70006c0.14514,-0.46046 0.33809,-1.71627 0.432,-2.79123c0.37565,-4.31829 1.72799,-5.84535 2.26415,-2.55682c0.10245,0.62288 0.31077,1.2826 0.46444,1.46343c0.15368,0.18251 0.4559,0.94269 0.66934,1.68948c0.21515,0.74679 0.73252,2.23701 1.15256,3.3103c0.41834,1.07497 0.86912,2.39273 1.0023,2.93021c0.32784,1.31943 1.11158,3.51793 1.7519,4.91438c0.29028,0.63125 0.52762,1.34957 0.52762,1.59738c0,0.24781 0.24247,0.9879 0.53957,1.64427c0.29711,0.65637 0.89985,2.32408 1.33697,3.70546c0.43712,1.38139 0.8879,2.69914 1.0023,2.93021c0.1144,0.22939 0.39273,0.98288 0.61812,1.67441c1.29941,3.97839 2.31537,6.93874 2.63809,7.6738c0.20149,0.46046 0.45761,1.21394 0.5686,1.67441c0.11099,0.46046 0.36711,1.15199 0.5686,1.53543c0.45761,0.87237 1.2072,3.0943 1.59993,4.74359c0.16563,0.69153 0.41663,1.39813 0.55835,1.57227c0.14343,0.17414 0.43541,0.92762 0.65227,1.67441c0.48664,1.6878 2.05925,6.22209 2.76444,7.9685c0.29028,0.71832 0.52762,1.50362 0.52762,1.74473c0,0.24111 0.25613,0.90585 0.5686,1.4785c0.31418,0.57265 0.57372,1.23236 0.57884,1.46511c0.00512,0.23107 0.25783,0.92427 0.56006,1.53878c0.30223,0.61283 0.55494,1.30436 0.56006,1.5371c0.00512,0.23107 0.40468,1.48687 0.88961,2.78956c0.48493,1.30436 1.07743,2.99886 1.31648,3.76574c0.23905,0.76688 0.57884,1.57227 0.75472,1.78659c0.23393,0.28465 0.3415,9.88234 0.39614,35.09388l0.07513,34.70039l20.05971,0l20.058,0l0.01025,-34.39565c0.00854,-33.4111 0.02561,-34.42579 0.56006,-35.5108c0.30223,-0.61451 0.55835,-1.30436 0.5686,-1.53543c0.01025,-0.22939 0.26637,-0.92092 0.5686,-1.53376c0.30223,-0.61451 0.55494,-1.28594 0.56006,-1.49357c0.00512,-0.20595 0.19466,-0.7719 0.42005,-1.2558c0.22539,-0.4839 0.54982,-1.40818 0.71886,-2.05282c0.17075,-0.64632 0.43371,-1.25078 0.58567,-1.34287c0.15197,-0.09209 0.27662,-0.43367 0.27662,-0.76018c0,-0.32651 0.24076,-1.10343 0.53616,-1.72799c0.57714,-1.22399 1.30453,-3.25839 1.80312,-5.04164c0.17075,-0.61451 0.48322,-1.36464 0.69495,-1.66603c0.21002,-0.30307 0.38077,-0.80706 0.38077,-1.12185c0,-0.31311 0.25613,-1.03813 0.57031,-1.61078c0.31247,-0.57265 0.5686,-1.24241 0.5686,-1.48855c0,-0.24614 0.18612,-0.84223 0.41151,-1.32613c0.40126,-0.85562 0.64031,-1.51031 2.44685,-6.70097c0.47298,-1.36129 1.04841,-2.82975 1.27721,-3.26509c0.23051,-0.43702 0.42175,-1.01804 0.42688,-1.29432c0.00512,-0.27628 0.25783,-1.00464 0.56006,-1.61915c0.30223,-0.61451 0.55494,-1.3479 0.56006,-1.63087c0.00512,-0.28297 0.19978,-0.84892 0.432,-1.2558c0.44054,-0.7719 1.0467,-2.36594 1.71262,-4.50918c0.59763,-1.92557 1.33356,-3.92816 1.90216,-5.18061c0.28345,-0.62455 0.51567,-1.33618 0.51567,-1.58231c0,-0.24614 0.17929,-0.80204 0.39956,-1.23739c0.60787,-1.19887 1.5931,-3.82267 1.5931,-4.24127c0,-0.20428 0.18441,-0.76688 0.41151,-1.25078c0.4542,-0.97116 1.16964,-2.94026 2.44685,-6.73948c0.46444,-1.38139 1.03475,-2.84482 1.26867,-3.2517c0.23393,-0.40856 0.42517,-0.94771 0.42517,-1.20055c0,-0.25284 0.21344,-0.86064 0.47298,-1.35292c0.25954,-0.4906 0.57201,-1.2692 0.69495,-1.72966c0.12294,-0.46046 0.62324,-1.90547 1.10988,-3.20984c0.48664,-1.30436 0.99889,-2.7477 1.1389,-3.20816c0.47469,-1.55385 1.47187,-4.18434 1.69555,-4.46564c0.12123,-0.15405 0.31077,-0.76855 0.42175,-1.36632c0.10928,-0.59776 0.37053,-1.35125 0.57714,-1.67441c0.20832,-0.32316 0.46956,-1.02641 0.58226,-1.5639c0.11099,-0.53748 0.3637,-1.29097 0.56177,-1.67441c0.77862,-1.51199 1.60847,-3.91309 1.51455,-4.38527c-0.12977,-0.66474 -38.13701,-0.9293 -39.05394,-0.27125c-0.50713,0.36502 -1.115,2.49319 -2.0251,7.10116c-0.22027,1.11515 -0.52079,2.24538 -0.66593,2.51161c-0.14514,0.2679 -0.35345,1.11348 -0.46103,1.88036c-0.10757,0.76855 -0.36882,2.02436 -0.58226,2.79123c-0.45078,1.63087 -1.17135,4.60462 -1.69043,6.97725c-0.49176,2.24203 -1.2294,5.26768 -1.70238,6.97558c-0.21173,0.76855 -0.47469,2.02436 -0.58226,2.79123c-0.10757,0.76688 -0.3193,1.6225 -0.47127,1.89878c-0.15026,0.27628 -0.40126,1.28092 -0.55665,2.23198c-0.15538,0.95106 -0.45932,2.29394 -0.67617,2.98547c-0.21856,0.69153 -0.66422,2.51161 -0.99377,4.04704c-0.32784,1.53376 -0.83668,3.73225 -1.12866,4.88257c-0.56518,2.22194 -0.87936,3.52965 -1.71604,7.11623c-1.03475,4.4489 -1.61188,5.58414 -2.04217,4.02862c-0.55835,-2.01096 -1.46333,-5.72479 -2.37513,-9.74839c-1.26867,-5.60089 -1.74165,-7.56999 -2.58174,-10.74466c-0.24247,-0.92092 -0.61812,-2.55347 -0.83326,-3.62844c-0.21515,-1.07329 -0.52591,-2.45468 -0.68983,-3.06919c-0.16221,-0.61451 -0.62324,-2.49821 -1.02109,-4.18602c-0.39785,-1.6878 -0.8657,-3.57151 -1.03987,-4.18602c-0.17417,-0.61451 -0.48322,-1.93226 -0.68642,-2.93021c-0.72227,-3.52797 -1.0467,-4.90266 -1.57602,-6.67418c-0.29369,-0.98623 -0.53445,-2.02436 -0.53445,-2.30901c0,-0.28465 -0.24588,-1.42492 -0.54811,-2.53505c-0.30052,-1.10846 -0.84521,-3.26342 -1.20891,-4.78713c-0.86058,-3.60165 -0.49688,-3.38732 -6.08895,-3.60332c-6.57217,-0.25451 -61.65612,-0.22437 -62.06933,0.03349c-0.19295,0.12056 -0.57372,2.20687 -0.90498,4.94787c-0.92205,7.6805 -1.71604,14.90556 -1.90045,17.29996c-0.09562,1.22734 -0.30223,3.08258 -0.45932,4.12239c-0.1588,1.03981 -0.39785,3.30025 -0.53274,5.02322c-0.27149,3.49281 -0.90327,9.20421 -1.58798,14.34966c-0.24759,1.87031 -0.56518,4.88424 -0.70349,6.69762c-0.13831,1.81171 -0.36711,3.92313 -0.51054,4.69001c-0.14172,0.76688 -0.34492,2.83979 -0.45249,4.60462c-0.10587,1.76482 -0.36541,4.15085 -0.57714,5.30284c-0.21002,1.15032 -0.47298,3.66193 -0.58397,5.5808c-0.11099,1.91887 -0.30735,3.68704 -0.43541,3.92816c-0.12806,0.24279 -0.432,2.85989 -0.67617,5.81689c-0.24417,2.957 -0.50542,5.47698 -0.58226,5.59754c-0.07513,0.12056 -0.2732,2.08631 -0.43883,4.36853c-0.16563,2.28222 -0.47981,5.2794 -0.69666,6.66079c-0.21856,1.38139 -0.4781,3.76741 -0.57884,5.30284c-0.09904,1.53376 -0.35175,3.73225 -0.56177,4.88257c-0.21002,1.15199 -0.46615,3.5263 -0.56689,5.27773c-0.10245,1.7531 -0.29881,3.82434 -0.43883,4.60462c-0.14002,0.78195 -0.39443,3.11105 -0.56518,5.17894c-0.39102,4.70006 -0.53957,4.96461 -1.24989,2.21356c-0.54982,-2.13487 -0.68983,-3.0424 -1.02279,-6.66916c-0.16051,-1.7665 -0.42175,-3.83774 -0.57714,-4.60462c-0.15709,-0.76855 -0.40809,-2.90342 -0.56177,-4.74527c-0.15197,-1.84185 -0.46273,-4.47904 -0.68983,-5.86042c-0.2271,-1.38139 -0.42175,-3.20146 -0.432,-4.04537c-0.01025,-0.84558 -0.2049,-2.48817 -0.432,-3.65188c-0.2271,-1.16371 -0.49176,-3.29858 -0.5908,-4.74527c-0.09733,-1.44501 -0.35687,-3.63179 -0.57543,-4.85913c-0.22027,-1.22734 -0.53786,-4.04369 -0.70691,-6.25726c-0.16904,-2.21356 -0.41151,-4.22285 -0.53786,-4.46564c-0.12806,-0.24111 -0.32272,-1.82175 -0.432,-3.50956c-0.11099,-1.6878 -0.37224,-3.8863 -0.58055,-4.88424c-0.21002,-0.99795 -0.46444,-3.06919 -0.56689,-4.60462c-0.10074,-1.53376 -0.36541,-3.85783 -0.58567,-5.16219c-0.42858,-2.54342 -1.19354,-9.07361 -1.56919,-13.39525c-0.12636,-1.45841 -0.42688,-4.03197 -0.66763,-5.72145c-0.24076,-1.6878 -0.57884,-4.4489 -0.7513,-6.1367c-0.17246,-1.6878 -0.42858,-3.57151 -0.5686,-4.18602c-0.14002,-0.61451 -0.3859,-2.56352 -0.54811,-4.32834c-0.51054,-5.60759 -1.18501,-11.42112 -2.42294,-20.88822c-0.2271,-1.74306 -0.56177,-3.34379 -0.74447,-3.55811c-0.31077,-0.36669 -30.03151,-0.51907 -36.04362,-0.18418m-352.86684,1.65096c1.66311,0.61618 2.86348,1.8904 2.46563,2.6171c-0.28003,0.51572 -0.65056,0.55255 -5.98137,0.59944c-3.12473,0.02679 -5.96942,0.0586 -6.32117,0.06865c-0.7735,0.02512 -0.76155,-1.30771 0.02049,-2.16501c1.547,-1.69952 6.67803,-2.28389 9.81642,-1.12018m116.44638,16.70053c-0.93913,0.17581 -1.96363,0.45544 -2.2761,0.6212c-0.31247,0.16577 -1.20891,0.39349 -1.99265,0.50567c-0.78204,0.11386 -1.74165,0.32818 -2.13438,0.47888c-0.39102,0.1507 -1.73482,0.51237 -2.98813,0.80539c-5.28471,1.23236 -8.70654,2.07961 -10.52845,2.60705c-1.85264,0.53414 -4.79125,1.25748 -6.40313,1.57562c-2.83104,0.55758 -4.5539,1.68948 -4.5539,2.99049c0,0.40353 -0.46615,1.39143 -1.2738,2.69579c-1.97729,3.19309 -1.88679,3.35049 1.77922,3.11272c1.52138,-0.09879 3.6643,-0.36669 4.7588,-0.59441c1.09622,-0.22939 2.5049,-0.42195 3.13156,-0.43032c0.62495,-0.00837 2.1617,-0.2026 3.415,-0.43032c1.2516,-0.22939 3.48672,-0.54586 4.96541,-0.70492c5.91137,-0.63125 10.57455,-3.27179 13.59853,-7.69557c1.47016,-2.15329 1.78263,-2.66733 1.78263,-2.93523c0,-0.16577 0.25442,-0.70492 0.56348,-1.1972c0.8879,-1.40985 0.35175,-1.8184 -1.8441,-1.40483m-209.67247,0.03014c-1.60676,1.57562 4.58805,9.21258 9.18464,11.31731c3.19986,1.46511 3.75821,1.62417 6.70535,1.8971c1.65798,0.15405 3.48501,0.40521 4.06214,0.55758c0.57714,0.15237 2.45709,0.40521 4.17655,0.56093c1.71945,0.15739 3.63868,0.41023 4.26534,0.5626c1.82532,0.44539 6.85732,0.68986 7.07588,0.34325c0.10416,-0.16409 -0.181,-0.84055 -0.63348,-1.50362c-0.94425,-1.38473 -2.17023,-3.92481 -2.42977,-5.03159c-0.21344,-0.91757 -1.96875,-1.76315 -4.47707,-2.15998c-0.92034,-0.144 -1.8219,-0.3533 -2.0029,-0.46214c-0.17929,-0.10884 -1.04328,-0.36335 -1.91752,-0.56427c-3.43549,-0.78865 -5.34448,-1.26585 -6.57217,-1.64259c-0.7052,-0.216 -1.92094,-0.51572 -2.70297,-0.66641c-1.93801,-0.37507 -5.53401,-1.28929 -6.40313,-1.62752c-0.39102,-0.15405 -1.32502,-0.36669 -2.07461,-0.47386c-0.74959,-0.10884 -1.77409,-0.36335 -2.2761,-0.56595c-1.15086,-0.46381 -3.70357,-0.81209 -3.98018,-0.54083m400.75539,21.01715c0.16734,1.59738 0.42517,3.35551 0.57372,3.90639c0.14685,0.55088 0.40297,2.52835 0.56518,4.39532c0.16221,1.86864 0.41834,3.71216 0.5686,4.09895c0.14855,0.38511 0.35175,1.99589 0.45078,3.57988c0.09904,1.58399 0.29198,3.22993 0.43029,3.65858c0.13831,0.42865 0.3859,2.12315 0.55152,3.76741c0.16392,1.64259 0.48664,4.05541 0.71374,5.35977c0.44737,2.56352 1.06377,7.2619 1.69213,12.89293c0.21685,1.95068 0.46615,3.65858 0.55323,3.79588c0.08708,0.13898 0.29369,1.68278 0.46103,3.43253c0.16563,1.74975 0.4781,4.18602 0.69495,5.41335c0.79911,4.54099 1.12695,8.82747 0.69495,9.09705c-0.70691,0.43869 -16.06587,0.31311 -16.44493,-0.13395c-0.24759,-0.29135 -0.22027,-0.97953 0.10757,-2.8264c0.23905,-1.34287 0.44395,-3.14788 0.4559,-4.0102c0.01195,-0.86232 0.20319,-2.88668 0.42517,-4.49745c0.22198,-1.61245 0.53786,-4.43718 0.70008,-6.27902c0.16392,-1.84185 0.42517,-4.04034 0.58226,-4.88424c0.15709,-0.8439 0.39956,-2.83644 0.53786,-4.4288c0.3176,-3.64016 1.14744,-11.02262 2.85665,-25.43088c0.30052,-2.53338 0.61641,-5.42173 0.70008,-6.41967c0.1588,-1.86027 0.93059,-6.80479 1.17305,-7.51139c0.30564,-0.88744 0.66934,0.26288 0.9562,3.02398m-389.52857,-2.19012l-0.6608,0.25618l0.64714,0.9092c4.61367,6.47158 9.74983,8.50096 20.73588,8.19454c8.27455,-0.23107 8.20795,-0.18251 6.47655,-4.71345c-0.60104,-1.57227 -2.22487,-2.09301 -8.04062,-2.57691c-1.09451,-0.09042 -3.14351,-0.34493 -4.5522,-0.56427c-1.40869,-0.21767 -4.05019,-0.52576 -5.86868,-0.68316c-1.81849,-0.15739 -3.67454,-0.40186 -4.12532,-0.54083c-1.30282,-0.40353 -3.88969,-0.5626 -4.61196,-0.2813m186.06628,-0.02679c-1.01767,0.10549 -2.12925,0.2813 -2.47075,0.39181c-0.3415,0.10884 -2.3905,0.37842 -4.5539,0.59609c-3.80773,0.38511 -5.47766,0.59609 -11.18754,1.41487c-5.59889,0.80204 -5.97625,0.9159 -5.97625,1.80668c0,0.29637 -0.26637,1.29097 -0.5908,2.21022c-0.94937,2.69077 -0.96474,2.68072 4.05531,2.89337c11.18925,0.47386 15.33335,-0.34828 19.78651,-3.92481c1.99095,-1.60073 4.67684,-4.95122 4.2807,-5.33968c-0.34833,-0.34158 -0.49688,-0.34493 -3.34329,-0.04856m-107.48713,7.08609c-16.98621,0.34828 -16.4825,0.28465 -15.64924,1.99757c0.40639,0.83553 0.48152,1.94064 0.48152,7.13799c0,7.37408 -0.10245,7.09948 2.73029,7.36069c10.69237,0.98288 43.91861,0.97953 55.93599,-0.00335c3.19986,-0.26288 3.08887,0.00502 3.08887,-7.4126c0,-4.76536 0.08196,-6.01949 0.44395,-6.70432c1.05011,-1.99254 0.93571,-2.03943 -5.42473,-2.23533c-12.78918,-0.39181 -27.01948,-0.44037 -41.60665,-0.14065m-50.17147,7.72069c-0.7052,0.12558 -3.34158,0.23777 -5.86185,0.24949c-5.54938,0.02512 -8.93706,0.27963 -8.93706,0.67311c0,0.46716 2.35294,2.42454 3.13156,2.60538c0.39102,0.09209 0.90327,0.32483 1.1372,0.51907c3.30401,2.73765 16.47738,2.10473 16.50128,-0.79199c0.02049,-2.20017 -2.91983,-3.80258 -5.97113,-3.25505m129.05798,-0.09712c-2.18048,0.55088 -3.4611,4.31829 -1.60505,4.72015c0.41322,0.09042 1.48894,0.40353 2.38879,0.69655c5.06957,1.64762 13.17678,-0.1507 16.77107,-3.7222c1.09451,-1.08502 1.01426,-1.10008 -7.69912,-1.3412c-4.3251,-0.11888 -8.18234,-0.27963 -8.57507,-0.35665c-0.39102,-0.07702 -0.96645,-0.07535 -1.28063,0.00335m-93.7059,10.48346c-0.19466,0.23274 -0.23905,5.10359 -0.13489,14.66445l0.15709,14.31617l1.28404,1.24241c0.70691,0.68316 1.36942,1.24241 1.47187,1.24241c0.10245,0 0.87424,0.504 1.71775,1.12018c1.2294,0.89916 1.59993,1.04985 1.88337,0.76688c0.45249,-0.45376 0.87253,-32.2206 0.432,-32.8418c-0.5242,-0.74009 -6.2614,-1.17208 -6.81122,-0.51069m55.44082,-0.09209c-2.40587,0.21098 -2.22658,-1.16204 -2.25902,17.23131c-0.03415,18.79688 -0.24247,17.81903 3.24425,15.27393c0.93913,-0.68651 2.09681,-1.49022 2.57491,-1.78994c0.47639,-0.29804 1.17988,-0.95274 1.56407,-1.45506l0.69837,-0.91255l0.08879,-13.90427c0.06659,-10.39806 0.00342,-14.00473 -0.24759,-14.30278c-0.35345,-0.41693 -2.03193,-0.45879 -5.66378,-0.14065m-42.0728,1.19385c-0.25783,0.25451 -0.3415,4.76369 -0.3415,18.58591l0,18.25103l0.92547,0.84892c0.95962,0.88074 2.68248,2.04612 3.91359,2.64556c0.39102,0.19088 0.91693,0.49395 1.16964,0.67479c1.42747,1.02139 1.39161,1.55887 1.39161,-20.40934l0,-20.38757l-0.73081,-0.27125c-1.06036,-0.39516 -5.90966,-0.34828 -6.328,0.06195m27.05022,-0.14902c-0.46444,0.18418 -0.52591,41.25904 -0.06318,41.54034c0.16221,0.09712 1.02279,-0.30307 1.91582,-0.89078c0.89132,-0.58772 1.7519,-1.13357 1.9124,-1.21394c1.36771,-0.68316 2.51515,-1.58399 2.732,-2.14491c0.37565,-0.96948 0.34492,-36.24587 -0.03244,-36.93572c-0.28857,-0.52744 -5.32911,-0.80539 -6.4646,-0.35497m-13.72147,0.63293c-0.3176,0.58437 -0.43712,44.54088 -0.12123,45.34459c0.76496,1.95738 4.22606,2.63552 5.8738,1.15199l1.06719,-0.96111l0.00171,-12.78242c0,-7.02916 0.08367,-17.17941 0.18612,-22.55425c0.22539,-11.73256 0.57201,-10.73797 -3.75479,-10.73797c-2.63297,0 -2.98983,0.0586 -3.25279,0.53916m-65.56288,21.06068c-1.78092,0.54251 -2.20951,2.97375 -0.78716,4.45894c1.02621,1.06995 -0.29881,3.24332 -1.97899,3.24332c-0.5003,0 -7.31493,6.87511 -8.4009,8.47584c-0.61299,0.90083 -1.33356,1.9691 -1.60505,2.37263c-1.00572,1.50194 -3.30914,6.37949 -3.90505,8.26822c-1.28746,4.0822 -1.53846,4.78545 -2.23512,6.27902c-0.39443,0.8439 -1.40015,2.40277 -2.23683,3.46602c-1.85435,2.35924 -1.85435,2.19012 -0.01025,4.52759c2.28976,2.90175 2.96934,4.18434 4.04165,7.63362c1.08939,3.50956 2.93519,7.86636 4.19704,9.90746c1.6614,2.69077 3.15205,4.72183 4.47536,6.10488c2.81738,2.94026 3.27669,3.37058 4.64782,4.36015c0.74618,0.53581 1.81678,1.32111 2.38026,1.74306c0.56348,0.42195 1.13549,0.76855 1.27038,0.76855c0.49347,0 0.2271,1.34455 -0.46615,2.34417c-1.5248,2.20687 -0.76838,3.63848 2.16853,4.09895c0.99889,0.15739 1.85947,0.40353 1.91069,0.54921c0.13489,0.37507 1.11671,0.32651 1.24989,-0.06195c0.07001,-0.2093 1.47016,-0.41023 3.93579,-0.5626c2.10535,-0.1306 4.65806,-0.42028 5.67573,-0.64465c1.01767,-0.22437 2.42636,-0.48558 3.13156,-0.57934c2.79006,-0.37172 7.21419,-2.07124 7.70766,-2.9637c1.12354,-2.02603 0.12806,-3.47104 -3.72406,-5.40331c-3.33133,-1.67106 -7.28761,-4.47569 -10.17329,-7.21334c-4.39681,-4.17262 -5.15153,-4.33839 -6.50899,-1.43162c-0.39273,0.84223 -0.81106,1.59069 -0.93059,1.66269c-0.35004,0.21265 -3.59087,-3.17133 -4.92955,-5.14378c-4.61708,-6.80814 -4.81515,-10.83173 -0.58738,-11.98372c1.72799,-0.47051 42.03694,-0.40186 42.43821,0.072c0.3415,0.40521 -0.42858,2.03608 -2.05925,4.35848c-0.49176,0.70158 -1.25672,2.02771 -1.69896,2.94863c-0.44395,0.92092 -0.98523,2.00761 -1.2055,2.41449c-0.22027,0.40856 -0.40126,0.91088 -0.40126,1.11683c-0.00171,0.20595 -0.17246,0.69488 -0.38077,1.08502c-0.81448,1.53208 -2.69614,8.64496 -2.52198,9.53239c0.28515,1.43999 9.41516,-5.80851 9.86764,-7.83455c0.10757,-0.47721 0.31247,-0.93767 0.45761,-1.02474c0.14343,-0.08874 0.26296,-0.34828 0.26296,-0.57934c0,-0.56762 2.59028,-5.99437 4.37803,-9.16905c1.44113,-2.56352 3.06496,-3.38063 6.29385,-3.16965c1.55895,0.10214 2.20438,1.31943 1.15256,2.17505c-0.24247,0.19758 -0.44224,0.47051 -0.44224,0.60781c0,0.1373 -0.41492,0.94939 -0.92376,1.80501c-0.50884,0.85562 -1.19867,2.01598 -1.53334,2.57691c-3.90505,6.55363 -5.25227,12.79414 -4.51975,20.92673c0.3176,3.51625 0.63007,3.48779 3.70528,-0.34158c0.46956,-0.58437 1.08256,-1.33283 1.36088,-1.66269c4.19191,-4.9395 4.97736,-6.75121 5.15153,-11.9c0.08025,-2.37933 0.28345,-4.76536 0.45078,-5.30284c0.16734,-0.53748 0.43371,-1.84687 0.58909,-2.91012c0.25442,-1.72129 0.73081,-3.49616 1.44625,-5.39159c0.22027,-0.58102 0.41322,-0.6279 2.5271,-0.6279c3.18449,0 3.33133,0.41525 2.00461,5.71977c-1.2516,5.00647 -1.24306,13.11395 0.01878,17.86089c0.16221,0.61451 0.47298,1.80668 0.68983,2.65058c0.43883,1.71292 1.38137,4.44555 1.97387,5.72145c0.21344,0.46046 0.47639,1.30771 0.58567,1.88371c0.19466,1.03311 0.21344,1.0465 1.53675,1.0465l1.33868,0l0.59763,-1.46511c0.32955,-0.80539 0.683,-1.77822 0.78374,-2.16333c0.10245,-0.38344 0.35516,-1.07329 0.56518,-1.53376c0.35175,-0.77358 0.71886,-2.01598 2.02339,-6.83827c0.60104,-2.21859 0.87766,-10.16197 0.44907,-12.836c-0.80253,-4.99978 -1.16793,-6.91027 -1.46162,-7.66376c-0.69325,-1.76985 0.07684,-2.38268 2.99325,-2.38268c2.1617,0 2.75249,0.60948 3.11277,3.21319c0.10587,0.7652 0.37053,1.95571 0.58738,2.64724c0.44737,1.42325 0.96815,5.62768 1.15769,9.34821c0.17929,3.49114 1.27721,6.27735 3.46452,8.78728c0.20319,0.23274 1.46674,1.80334 2.81055,3.49114c1.3421,1.68948 2.47929,3.11105 2.52539,3.16295c1.12354,1.24743 1.85093,-3.96834 1.29599,-9.31137c-0.70178,-6.7713 -1.9124,-10.43657 -5.02005,-15.20696c-2.19243,-3.36221 -2.99837,-5.70638 -2.04729,-5.95754c3.23913,-0.8506 5.71842,-0.0067 6.9888,2.37933c0.51908,0.9745 1.06377,1.95906 1.21062,2.19012c0.14514,0.23107 0.39273,0.73339 0.54811,1.11683c0.15709,0.38344 0.40297,0.88576 0.54982,1.11515c0.63861,1.00967 2.45539,5.36647 2.7081,6.4967c0.21515,0.96111 1.68872,2.58361 4.28412,4.72015c1.09622,0.90083 2.18389,1.79999 2.41953,1.99924c3.34499,2.82975 4.17484,2.23701 2.87202,-2.05282c-0.30223,-0.99795 -0.83838,-2.81803 -1.19013,-4.04704c-0.35004,-1.22734 -0.78887,-2.48314 -0.97157,-2.78956c-0.18441,-0.30809 -0.42688,-0.92092 -0.53786,-1.36464c-0.1127,-0.44372 -0.77862,-1.76315 -1.4804,-2.93021c-1.83044,-3.04574 -1.90386,-3.1596 -2.55442,-3.96834c-0.76667,-0.95274 -1.39332,-2.44463 -1.13207,-2.69914c0.28686,-0.28297 26.52431,-0.25116 26.81287,0.03181c0.50884,0.49897 0.44224,22.47053 -0.07342,23.79331c-1.8902,4.85578 2.09852,8.63324 8.04403,7.61855c2.72688,-0.46548 2.59028,0.01172 2.77981,-9.73835c0.41322,-21.36877 0.39614,-21.01882 1.05011,-21.55798c0.52762,-0.43367 1.31819,-0.48725 7.08271,-0.48725l6.4885,0l2.12755,0.97618c7.04515,3.23495 13.17507,-1.78492 11.26438,-9.22598c-0.91864,-3.57653 -5.59548,-5.1354 -10.42087,-3.47104c-1.78605,0.61451 -15.66119,0.85395 -16.57983,0.28465c-0.44224,-0.27293 -0.54982,-2.57189 -1.00913,-21.4257l-0.1588,-6.49l-1.11329,-0.55758c-5.27276,-2.63719 -11.82444,2.05617 -9.51931,6.82153c0.48493,1.00129 0.51908,21.08077 0.03757,21.55295c-0.27491,0.26958 -21.21398,0.48223 -22.62267,0.22939c-0.75813,-0.13563 -1.02962,-0.37507 -1.36429,-1.20055c-0.23051,-0.56595 -0.53274,-1.28092 -0.67276,-1.58734c-0.13831,-0.30642 -0.33979,-0.87237 -0.44737,-1.2558c-0.10587,-0.38344 -0.35516,-0.88576 -0.55323,-1.11683c-0.19807,-0.22939 -0.44907,-0.70492 -0.55835,-1.05488c-0.21856,-0.7066 -0.99718,-1.52036 -2.45709,-2.57189c-0.96474,-0.69655 -0.99035,-0.69823 -7.37128,-0.69823l-6.40313,0l-1.1389,0.73339c-1.8663,1.2039 -2.40245,1.98417 -3.45427,5.02322c-1.45479,4.20778 -0.68983,3.87123 -8.7885,3.87123l-6.88976,0l-0.74959,-1.06157c-0.41322,-0.58437 -0.74959,-1.21562 -0.74959,-1.40483c0,-0.57432 -2.26927,-4.59959 -3.04277,-5.39661c-1.22086,-1.25915 -3.02911,-1.81673 -6.49192,-1.99924c-9.23587,-0.48725 -11.26609,0.60111 -13.44827,7.21167l-0.82814,2.51161l-19.04375,0.08205c-20.72393,0.08874 -20.5805,0.09879 -22.00455,-1.4919c-1.20037,-1.3412 -0.8196,-4.03699 0.88107,-6.23214c0.28345,-0.36669 0.51567,-0.77692 0.51567,-0.91088c0,-0.48223 4.4156,-6.05968 5.45546,-6.89186l0.81789,-0.65469l0.84521,1.83013c1.64091,3.54807 2.50149,3.40742 7.08613,-1.16204c3.23059,-3.22156 5.51181,-5.05503 7.66497,-6.16851c0.41492,-0.21432 1.39503,-0.78027 2.17706,-1.25915c0.78374,-0.47721 1.68018,-1.02474 1.99265,-1.21729c0.31247,-0.19088 0.83326,-0.48055 1.15427,-0.64465c3.30231,-1.67608 -1.2755,-5.30117 -8.5836,-6.79474c-0.95449,-0.19591 -1.86118,-0.43032 -2.01485,-0.52241c-1.24306,-0.75516 -12.1352,-1.24743 -14.13298,-0.6413m53.77259,26.97133c1.10988,0.52744 2.32732,1.75813 2.74566,2.77784c0.09391,0.22939 0.63007,1.48017 1.18842,2.77951c1.71775,3.99178 1.29429,6.42972 -1.11841,6.42972c-1.30453,0 -3.27157,-2.1918 -3.27157,-3.64518c0,-0.12391 -0.13831,-0.57934 -0.30564,-1.01134c-0.44224,-1.1319 -1.11841,-0.17079 -1.11841,1.58734c0,3.41914 -4.52146,4.02527 -5.3718,0.71832c-0.37224,-1.45338 -0.73423,-1.47683 -1.00401,-0.06363c-0.5686,2.97375 -4.73148,2.95198 -4.71612,-0.02344c0.01366,-2.58361 1.94314,-8.08571 3.24084,-9.24105c1.24135,-1.10511 7.6274,-1.30604 9.73104,-0.30809m40.56166,0.31814c1.03304,0.52744 1.86288,1.76817 2.38879,3.57486c0.1127,0.38511 0.33296,0.8573 0.49176,1.05153c0.2954,0.36167 1.01426,2.87328 1.26184,4.41541c0.20832,1.2826 -0.90839,2.4597 -2.33245,2.4597c-1.37283,0 -2.18731,-0.94771 -2.96934,-3.45597c-1.12183,-3.60332 -1.86801,-3.82099 -2.31025,-0.67311c-0.45932,3.27681 -0.53786,3.47942 -1.48553,3.87123c-1.58285,0.65134 -3.33646,-0.61283 -3.33646,-2.40947c0,-1.15701 -1.115,-0.57432 -1.45821,0.76353c-0.44737,1.74138 -2.35464,2.4078 -3.88456,1.35794c-0.76325,-0.52409 -0.87936,-2.58528 -0.21515,-3.83439c0.22881,-0.42865 0.49859,-1.24408 0.59933,-1.81338c0.10245,-0.5693 0.35175,-1.29766 0.55665,-1.61748c0.2049,-0.32149 0.51225,-1.09674 0.68471,-1.72464c0.22881,-0.82883 0.64202,-1.38139 1.51797,-2.02101l1.20379,-0.87906l4.10825,0.19256c3.2545,0.15405 4.33022,0.30809 5.17885,0.74176" fill="#060606" fill-rule="evenodd" stroke="null"/>
 </g>
</svg>