<?xml version="1.0" encoding="UTF-8"?><svg xmlns="http://www.w3.org/2000/svg" viewBox="0 0 156.83 21.34"><g id="a"/><g id="b"><g id="c"><g><path d="M45.98,.79h-3.45l-9.15,20.3h3.7l1.12-2.47,1.73-3.92,.35-.8h0l1.97-4.47c.91-2.04,2-4.73,2-4.73,0,0,1.13,2.73,2,4.73l1.97,4.47h0l.35,.8,1.73,3.92,1.13,2.47h3.7L45.98,.79Z" fill="#373a36"/><polygon points="0 .79 14.89 .79 14.89 3.92 3.62 3.92 3.62 8.85 13.14 8.85 13.14 11.94 3.62 11.94 3.62 21.02 0 21.02 0 .79" fill="#373a36"/><polygon points="16.46 .79 20.08 .79 20.08 17.9 32.2 17.9 32.2 21.02 16.46 21.02 16.46 .79" fill="#373a36"/><polygon points="58.68 3.92 51.56 3.92 51.56 .79 69.41 .79 69.41 3.92 62.3 3.92 62.3 21.02 58.68 21.02 58.68 3.92" fill="#373a36"/><rect x="71.4" y=".79" width="3.62" height="20.23" fill="#373a36"/><path d="M77.47,.79h8.55c5.81,0,8.9,3.47,8.9,7.74,0,2.72-1.47,5.28-4.15,6.56l4.46,5.93h-4.21l-3.53-4.93c-.56,.09-1.19,.16-1.81,.16h-4.59v4.78h-3.62V.79Zm8.71,12.33c2.9,0,4.93-2.06,4.93-4.59s-2.03-4.65-4.9-4.65h-5.12V13.12h5.09Z" fill="#373a36"/><path d="M120.4,.79h3.68l7.24,9.93c1.44,1.97,3.09,4.78,3.09,4.78V.79h3.62V21.02h-3.75l-6.9-9.43c-1.75-2.4-3.37-5.15-3.37-5.15v14.58h-3.62V.79Z" fill="#373a36"/><path d="M140.57,18.43l1.4-2.75c1.65,1.34,3.68,2.37,6.71,2.37,2.18,0,4.37-1.03,4.37-2.87s-2.09-2.4-4.15-2.9c-3.72-.87-7.56-2.06-7.56-6.09,0-3.78,3.59-5.71,7.34-5.71,2.9,0,5.15,.81,7.18,2.19l-1.4,2.78c-1.81-1.16-3.68-1.69-5.77-1.69-1.34,0-3.65,.56-3.65,2.4,0,1.62,1.81,2.15,4.25,2.75,3.84,.91,7.55,2.34,7.55,6.27,0,4.25-4.18,6.15-8.18,6.15-4.4,0-6.74-1.65-8.09-2.9" fill="#373a36"/><path d="M113.74,12.74c-.76,3.03-3.34,5.31-6.61,5.31-3.96,0-6.9-3.25-6.9-7.15s2.93-7.15,6.9-7.15c1.55,0,2.94,.53,4.06,1.39l2.53-2.48c-1.79-1.37-4.06-2.19-6.62-2.19-6.12,0-10.65,4.65-10.65,10.43s4.53,10.43,10.65,10.43,10.65-4.62,10.65-10.43c0-1.67-.39-3.25-1.08-4.65l-2.93,6.48Z" fill="#373a36"/><polygon points="102.65 15.25 111.35 15.26 118.23 0 102.65 15.25" fill="#ffa400" fill-rule="evenodd"/></g></g></g></svg>